<?xml version="1.0" encoding="UTF-8"?>
<svg xmlns="http://www.w3.org/2000/svg" viewBox="0 0 32 32" width="32" height="32">
  <!-- Font Awesome Crown Icon adapted for favicon -->
  <rect width="32" height="32" fill="transparent"/>
  <path fill="#18e77c" d="M17.2 5.9c0.6-0.4 1.1-1.1 1.1-1.9c0-1.2-1-2.2-2.2-2.2s-2.2 1-2.2 2.2c0 0.8 0.4 1.5 1.1 1.9l-2.7 6.4c-0.5 1-1.8 1.3-2.7 0.6l-4.9-3.9c0.3-0.4 0.4-0.8 0.4-1.3c0-1.2-1-2.2-2.2-2.2s-2.2 1-2.2 2.2s1 2.2 2.2 2.2h0.1l2.5 14c0.3 1.7 1.8 2.9 3.5 2.9h15.4c1.7 0 3.2-1.2 3.5-2.9l2.5-14h0.1c1.2 0 2.2-1 2.2-2.2s-1-2.2-2.2-2.2s-2.2 1-2.2 2.2c0 0.5 0.2 1 0.4 1.3l-4.9 3.9c-0.9 0.7-2.2 0.4-2.7-0.6l-2.7-6.4z"/>
</svg> 